<?xml version="1.0" encoding="UTF-8"?>
<!DOCTYPE svg PUBLIC "-//W3C//DTD SVG 1.1//EN" "http://www.w3.org/Graphics/SVG/1.1/DTD/svg11.dtd">
<!-- Creator: CorelDRAW 2020 (64-Bit) -->
<svg xmlns="http://www.w3.org/2000/svg" xml:space="preserve" width="0.209665in" height="0.203315in" version="1.1" style="shape-rendering:geometricPrecision; text-rendering:geometricPrecision; image-rendering:optimizeQuality; fill-rule:evenodd; clip-rule:evenodd"
viewBox="0 0 35.6 34.52"
 xmlns:xlink="http://www.w3.org/1999/xlink"
 xmlns:xodm="http://www.corel.com/coreldraw/odm/2003">
 <defs>
  <style type="text/css">
   <![CDATA[
    .fil0 {fill:#FEFEFE}
   ]]>
  </style>
 </defs>
 <g id="Layer_x0020_1">
  <metadata id="CorelCorpID_0Corel-Layer"/>
  <path class="fil0" d="M14.21 0c7.85,0 14.21,6.36 14.21,14.21 0,2.52 -0.66,4.89 -1.81,6.95l8.68 7.73c0.4,0.35 0.43,0.96 0.08,1.36l-3.53 3.96c-0.35,0.4 -0.96,0.43 -1.36,0.08l-8.9 -7.92c-2.15,1.3 -4.67,2.06 -7.36,2.06 -7.85,0 -14.21,-6.36 -14.21,-14.21 0,-7.85 6.36,-14.21 14.21,-14.21zm0 7.2c3.87,0 7,3.14 7,7 0,3.87 -3.14,7 -7,7 -3.87,0 -7,-3.14 -7,-7 0,-3.87 3.14,-7 7,-7z"/>
 </g>
</svg>
