<?xml version="1.0" encoding="UTF-8"?>
<!DOCTYPE svg PUBLIC "-//W3C//DTD SVG 1.1//EN" "http://www.w3.org/Graphics/SVG/1.1/DTD/svg11.dtd">
<!-- Creator: CorelDRAW 2020 (64-Bit) -->
<svg xmlns="http://www.w3.org/2000/svg" xml:space="preserve" width="0.209665in" height="0.203315in" version="1.1" style="shape-rendering:geometricPrecision; text-rendering:geometricPrecision; image-rendering:optimizeQuality; fill-rule:evenodd; clip-rule:evenodd"
viewBox="0 0 10.86 10.53"
 xmlns:xlink="http://www.w3.org/1999/xlink"
 xmlns:xodm="http://www.corel.com/coreldraw/odm/2003">
 <defs>
  <style type="text/css">
   <![CDATA[
    .fil0 {fill:#373435}
   ]]>
  </style>
 </defs>
 <g id="Layer_x0020_1">
  <metadata id="CorelCorpID_0Corel-Layer"/>
  <path class="fil0" d="M4.33 0c2.39,0 4.33,1.94 4.33,4.33 0,0.77 -0.2,1.49 -0.55,2.12l2.65 2.36c0.12,0.11 0.13,0.29 0.02,0.41l-1.08 1.21c-0.11,0.12 -0.29,0.13 -0.41,0.02l-2.72 -2.42c-0.66,0.4 -1.42,0.63 -2.25,0.63 -2.39,0 -4.33,-1.94 -4.33,-4.33 0,-2.39 1.94,-4.33 4.33,-4.33zm0 2.2c1.18,0 2.14,0.96 2.14,2.14 0,1.18 -0.96,2.14 -2.14,2.14 -1.18,0 -2.14,-0.96 -2.14,-2.14 0,-1.18 0.96,-2.14 2.14,-2.14z"/>
 </g>
</svg>
